<mxfile host="app.diagrams.net" agent="Mozilla/5.0 (Windows NT 10.0; Win64; x64) AppleWebKit/537.36 (KHTML, like Gecko) Chrome/131.0.0.0 Safari/537.36" version="26.0.2">
  <diagram name="PÃ¡gina-1" id="ucCCWqRoxOED4arcWzan">
    <mxGraphModel dx="880" dy="472" grid="1" gridSize="10" guides="1" tooltips="1" connect="1" arrows="1" fold="1" page="1" pageScale="1" pageWidth="827" pageHeight="1169" math="0" shadow="0">
      <root>
        <mxCell id="0" />
        <mxCell id="1" parent="0" />
        <mxCell id="SBb4fb0snGZO9E9P_tAF-9" style="edgeStyle=orthogonalEdgeStyle;rounded=0;orthogonalLoop=1;jettySize=auto;html=1;exitX=0.75;exitY=0;exitDx=0;exitDy=0;entryX=0.75;entryY=1;entryDx=0;entryDy=0;" edge="1" parent="1" source="SBb4fb0snGZO9E9P_tAF-3" target="SBb4fb0snGZO9E9P_tAF-5">
          <mxGeometry relative="1" as="geometry" />
        </mxCell>
        <mxCell id="SBb4fb0snGZO9E9P_tAF-3" value="Model" style="rounded=1;whiteSpace=wrap;html=1;fontStyle=1" vertex="1" parent="1">
          <mxGeometry x="230" y="360" width="180" height="70" as="geometry" />
        </mxCell>
        <mxCell id="SBb4fb0snGZO9E9P_tAF-6" style="edgeStyle=orthogonalEdgeStyle;rounded=0;orthogonalLoop=1;jettySize=auto;html=1;exitX=0.25;exitY=1;exitDx=0;exitDy=0;entryX=0.25;entryY=0;entryDx=0;entryDy=0;" edge="1" parent="1" source="SBb4fb0snGZO9E9P_tAF-4" target="SBb4fb0snGZO9E9P_tAF-5">
          <mxGeometry relative="1" as="geometry" />
        </mxCell>
        <mxCell id="SBb4fb0snGZO9E9P_tAF-4" value="View" style="rounded=1;whiteSpace=wrap;html=1;fontStyle=1" vertex="1" parent="1">
          <mxGeometry x="230" y="90" width="180" height="70" as="geometry" />
        </mxCell>
        <mxCell id="SBb4fb0snGZO9E9P_tAF-8" style="edgeStyle=orthogonalEdgeStyle;rounded=0;orthogonalLoop=1;jettySize=auto;html=1;exitX=0.25;exitY=1;exitDx=0;exitDy=0;entryX=0.25;entryY=0;entryDx=0;entryDy=0;" edge="1" parent="1" source="SBb4fb0snGZO9E9P_tAF-5" target="SBb4fb0snGZO9E9P_tAF-3">
          <mxGeometry relative="1" as="geometry" />
        </mxCell>
        <mxCell id="SBb4fb0snGZO9E9P_tAF-10" style="edgeStyle=orthogonalEdgeStyle;rounded=0;orthogonalLoop=1;jettySize=auto;html=1;exitX=0.75;exitY=0;exitDx=0;exitDy=0;entryX=0.75;entryY=1;entryDx=0;entryDy=0;" edge="1" parent="1" source="SBb4fb0snGZO9E9P_tAF-5" target="SBb4fb0snGZO9E9P_tAF-4">
          <mxGeometry relative="1" as="geometry" />
        </mxCell>
        <mxCell id="SBb4fb0snGZO9E9P_tAF-5" value="Controller" style="rounded=1;whiteSpace=wrap;html=1;fontStyle=1" vertex="1" parent="1">
          <mxGeometry x="230" y="220" width="180" height="70" as="geometry" />
        </mxCell>
        <mxCell id="SBb4fb0snGZO9E9P_tAF-11" value="Request" style="text;html=1;align=center;verticalAlign=middle;whiteSpace=wrap;rounded=0;fontStyle=1" vertex="1" parent="1">
          <mxGeometry x="210" y="180" width="60" height="30" as="geometry" />
        </mxCell>
        <mxCell id="SBb4fb0snGZO9E9P_tAF-12" value="Response" style="text;html=1;align=center;verticalAlign=middle;whiteSpace=wrap;rounded=0;fontStyle=1" vertex="1" parent="1">
          <mxGeometry x="370" y="180" width="60" height="30" as="geometry" />
        </mxCell>
        <mxCell id="SBb4fb0snGZO9E9P_tAF-13" value="Data Manipulation" style="text;html=1;align=center;verticalAlign=middle;whiteSpace=wrap;rounded=0;fontStyle=1" vertex="1" parent="1">
          <mxGeometry x="290" y="310" width="60" height="30" as="geometry" />
        </mxCell>
      </root>
    </mxGraphModel>
  </diagram>
</mxfile>
